<svg xmlns="http://www.w3.org/2000/svg" width="521.968" height="521.969">
  <path fill="white" d="M100.603 519.35c2.136 1.75 4.37 2.619 6.701 2.619 2.521 0 4.755-.863 6.702-2.619l92.92-92.914c1.94-2.332 2.913-4.664 2.913-6.996 0-2.711-.875-4.949-2.62-6.701-1.75-1.738-3.984-2.619-6.701-2.619h-19.205V9.321c0-2.711-.875-4.951-2.62-6.689C176.943.881 174.709 0 171.992 0H48.742c-2.724 0-4.951.875-6.702 2.632-1.75 1.738-2.625 3.984-2.625 6.689v400.798H14.096c-4.271 0-7.185 1.947-8.739 5.826-1.555 3.697-.875 7.088 2.038 10.197l93.208 93.208zM265.756 90.441h74.566c2.717 0 4.95-.875 6.701-2.625 1.75-1.738 2.625-3.972 2.625-6.689V25.19c0-2.705-.875-4.951-2.625-6.689-1.744-1.75-3.984-2.632-6.701-2.632h-74.566c-2.724 0-4.951.875-6.701 2.632-1.75 1.738-2.625 3.984-2.625 6.689v55.937c0 2.717.875 4.951 2.625 6.689 1.751 1.75 3.985 2.625 6.701 2.625zM265.756 196.733h130.49c2.718 0 4.951-.875 6.702-2.619 1.75-1.75 2.619-3.984 2.619-6.702v-55.924c0-2.717-.875-4.963-2.619-6.702-1.751-1.75-3.984-2.625-6.702-2.625h-130.49c-2.724 0-4.951.875-6.701 2.625-1.75 1.738-2.625 3.984-2.625 6.702v55.924c0 2.717.875 4.951 2.625 6.702 1.751 1.744 3.985 2.619 6.701 2.619zM265.756 303.025h186.415c2.718 0 4.951-.875 6.701-2.619 1.744-1.75 2.62-3.984 2.62-6.701V237.78c0-2.717-.876-4.951-2.62-6.701-1.75-1.75-3.983-2.62-6.701-2.62H265.756c-2.724 0-4.951.863-6.701 2.62-1.75 1.75-2.625 3.984-2.625 6.701v55.925c0 2.717.875 4.951 2.625 6.701 1.751 1.744 3.985 2.619 6.701 2.619zM265.756 409.318h242.346c2.718 0 4.951-.863 6.701-2.613 1.751-1.75 2.62-3.984 2.62-6.701v-55.926c0-2.717-.876-4.951-2.62-6.701-1.75-1.738-3.983-2.619-6.701-2.619H265.756c-2.724 0-4.951.875-6.701 2.619-1.75 1.75-2.625 3.984-2.625 6.701v55.926c0 2.717.875 4.951 2.625 6.701 1.751 1.75 3.985 2.613 6.701 2.613z"/>
</svg>
