<svg xmlns="http://www.w3.org/2000/svg" fill="#fff" width="521.962" height="521.963">
  <path fill="white" d="M100.599 519.35c2.136 1.75 4.37 2.613 6.702 2.613 2.521 0 4.755-.863 6.695-2.613l92.92-92.914c1.94-2.332 2.913-4.663 2.913-6.995 0-2.711-.875-4.951-2.62-6.701-1.75-1.738-3.984-2.62-6.701-2.62h-19.205V9.314c0-2.711-.875-4.951-2.62-6.689C176.934.875 174.7 0 171.989 0H48.738c-2.723 0-4.951.875-6.701 2.625-1.75 1.738-2.62 3.984-2.62 6.689v400.805h-25.33c-4.272 0-7.185 1.946-8.733 5.827-1.554 3.696-.875 7.087 2.038 10.195l93.207 93.209zM265.753 409.317h74.566c2.717 0 4.951-.875 6.701-2.625 1.744-1.738 2.619-3.984 2.619-6.689v-55.937c0-2.718-.875-4.951-2.619-6.689-1.75-1.75-3.984-2.631-6.701-2.631h-74.566c-2.724 0-4.951.875-6.695 2.631-1.75 1.738-2.619 3.972-2.619 6.689v55.937c0 2.712.875 4.951 2.619 6.689 1.744 1.745 3.979 2.625 6.695 2.625zM265.753 303.025h130.491c2.717 0 4.95-.875 6.701-2.625 1.75-1.738 2.619-3.984 2.619-6.701v-55.925c0-2.717-.875-4.951-2.619-6.702-1.751-1.738-3.984-2.619-6.701-2.619H265.753c-2.724 0-4.951.875-6.695 2.619-1.75 1.75-2.619 3.984-2.619 6.702v55.925c0 2.717.875 4.963 2.619 6.701 1.744 1.745 3.979 2.625 6.695 2.625zM265.753 196.721h186.415c2.718 0 4.951-.863 6.702-2.619 1.744-1.75 2.619-3.984 2.619-6.702v-55.924c0-2.717-.875-4.951-2.619-6.702-1.751-1.738-3.984-2.619-6.702-2.619H265.753c-2.724 0-4.951.875-6.695 2.619-1.75 1.75-2.619 3.984-2.619 6.702V187.4c0 2.717.875 4.951 2.619 6.702 1.744 1.75 3.979 2.619 6.695 2.619zM265.753 90.429h242.346c2.718 0 4.951-.875 6.702-2.62 1.75-1.75 2.619-3.984 2.619-6.701V25.184c0-2.717-.875-4.951-2.619-6.701-1.745-1.75-3.984-2.613-6.702-2.613H265.753c-2.724 0-4.951.863-6.695 2.613-1.75 1.75-2.619 3.984-2.619 6.701v55.925c0 2.717.875 4.951 2.619 6.701 1.744 1.744 3.979 2.619 6.695 2.619z"/>
</svg>
